<svg width="70" height="70" viewBox="0 0 70 70" fill="none" xmlns="http://www.w3.org/2000/svg">
<path d="M27.6762 20.4165H18.0839C14.8169 20.4165 13.1822 20.4165 11.9344 21.0523C10.8368 21.6116 9.94506 22.5033 9.3858 23.6009C8.75 24.8487 8.75 26.4834 8.75 29.7504V46.0837C8.75 49.3507 8.75 50.9819 9.3858 52.2297C9.94506 53.3273 10.8368 54.2221 11.9344 54.7813C13.181 55.4165 14.8137 55.4165 18.0743 55.4165H51.9257C55.1863 55.4165 56.8166 55.4165 58.0632 54.7813C59.1609 54.2221 60.0556 53.3273 60.6148 52.2297C61.25 50.9831 61.25 49.3528 61.25 46.0922V29.7408C61.25 26.4802 61.25 24.8475 60.6148 23.6009C60.0556 22.5033 59.1609 21.6116 58.0632 21.0523C56.8154 20.4165 55.1842 20.4165 51.9172 20.4165H42.3232M27.6762 20.4165H27.8564M27.6762 20.4165C27.7127 20.4165 27.7512 20.4165 27.7917 20.4165L27.8564 20.4165M27.6762 20.4165C27.3667 20.4164 27.1932 20.4148 27.0561 20.3994C25.3423 20.2075 24.1669 18.5763 24.5268 16.8898C24.5603 16.7328 24.6265 16.5343 24.7575 16.141L24.7632 16.1244C24.9129 15.6753 24.9877 15.4507 25.0704 15.2525C25.9171 13.2237 27.8344 11.8439 30.0269 11.6823C30.241 11.6665 30.4763 11.6665 30.9497 11.6665H39.05C39.5235 11.6665 39.7607 11.6665 39.9748 11.6823C42.1673 11.8439 44.0825 13.2237 44.9292 15.2525C45.0119 15.4507 45.0871 15.675 45.2368 16.1241C45.3716 16.5286 45.4391 16.7309 45.473 16.8901C45.833 18.5766 44.6594 20.2075 42.9456 20.3994C42.8085 20.4148 42.6333 20.4164 42.3232 20.4165M27.8564 20.4165H42.1428M42.1428 20.4165H42.3232M42.1428 20.4165L42.2076 20.4165C42.2481 20.4165 42.2866 20.4165 42.3232 20.4165M35 46.6665C30.1675 46.6665 26.25 42.749 26.25 37.9165C26.25 33.084 30.1675 29.1665 35 29.1665C39.8325 29.1665 43.75 33.084 43.75 37.9165C43.75 42.749 39.8325 46.6665 35 46.6665Z" stroke="white" stroke-width="4" stroke-linecap="round" stroke-linejoin="round"/>
</svg>
