<svg width="37" height="36" viewBox="0 0 37 36" fill="none" xmlns="http://www.w3.org/2000/svg">
<path d="M15.9616 20.539L23.2309 13.2698M30.6669 8.8335L24.531 28.7754C23.9811 30.5625 23.7059 31.4565 23.2317 31.7529C22.8203 32.0099 22.311 32.0529 21.8629 31.867C21.3463 31.6526 20.927 30.8154 20.0905 29.1425L16.2041 21.3696C16.0713 21.1042 16.0049 20.972 15.9162 20.8569C15.8376 20.7549 15.7468 20.6629 15.6447 20.5842C15.5323 20.4976 15.4023 20.4326 15.1487 20.3058L7.35789 16.4104C5.68493 15.5739 4.84837 15.1553 4.63401 14.6387C4.4481 14.1906 4.4905 13.6808 4.74753 13.2694C5.04391 12.7951 5.93785 12.5195 7.72556 11.9695L27.6674 5.8335C29.0729 5.40106 29.7759 5.18501 30.2506 5.35928C30.6641 5.51109 30.9901 5.83675 31.1419 6.25025C31.3161 6.72473 31.0999 7.42738 30.6679 8.83142L30.6669 8.8335Z" stroke="white" stroke-width="3" stroke-linecap="round" stroke-linejoin="round"/>
</svg>
