<svg width="33" height="32" viewBox="0 0 33 32" fill="none" xmlns="http://www.w3.org/2000/svg">
<path d="M5.8335 26.6671H27.1668M5.8335 26.6671V21.3338L16.5002 10.6671M5.8335 26.6671L11.1668 26.6671L21.8335 16.0005M16.5002 10.6671L20.325 6.84228L20.3273 6.84001C20.8538 6.3135 21.1175 6.04978 21.4215 5.951C21.6893 5.86399 21.9778 5.86399 22.2456 5.951C22.5494 6.04971 22.8128 6.31313 23.3386 6.83889L25.6583 9.15862C26.1863 9.68664 26.4505 9.95078 26.5494 10.2552C26.6364 10.523 26.6364 10.8115 26.5493 11.0793C26.4505 11.3835 26.1868 11.6472 25.6595 12.1745L25.6583 12.1756L21.8335 16.0005M16.5002 10.6671L21.8335 16.0005" stroke="white" stroke-width="3" stroke-linecap="round" stroke-linejoin="round"/>
</svg>
