<svg width="51" height="51" viewBox="0 0 51 51" fill="none" xmlns="http://www.w3.org/2000/svg">
<path d="M14.87 38.337C17.7552 40.7289 21.4598 42.1666 25.5003 42.1666C34.705 42.1666 42.167 34.7047 42.167 25.5C42.167 24.3145 42.0432 23.1579 41.8078 22.0424M14.87 38.337C11.1824 35.2799 8.83362 30.6643 8.83362 25.5C8.83362 16.2952 16.2955 8.83331 25.5003 8.83331C33.5195 8.83331 40.216 14.4969 41.8078 22.0424M14.87 38.337C18.944 37.4057 23.7908 35.4642 28.6792 32.6418C34.3674 29.3577 38.9943 25.526 41.8078 22.0424M14.87 38.337C9.80924 39.494 5.94082 39.0923 4.66594 36.8841C3.35278 34.6096 5.07565 30.9102 8.83332 26.977M41.8078 22.0424C44.4158 18.8133 45.4657 15.8834 44.3588 13.9661C43.2363 12.0219 40.1032 11.4779 35.9159 12.1652" stroke="#3F3AE0" stroke-width="4" stroke-linecap="round" stroke-linejoin="round"/>
</svg>
